<?xml version="1.0" encoding="utf-8" standalone="no"?>
<!DOCTYPE svg PUBLIC "-//W3C//DTD SVG 1.1//EN"
  "http://www.w3.org/Graphics/SVG/1.1/DTD/svg11.dtd">
<svg xmlns:xlink="http://www.w3.org/1999/xlink" width="460.8pt" height="345.6pt" viewBox="0 0 460.8 345.6" xmlns="http://www.w3.org/2000/svg" version="1.1">
 <metadata>
  <rdf:RDF xmlns:dc="http://purl.org/dc/elements/1.1/" xmlns:cc="http://creativecommons.org/ns#" xmlns:rdf="http://www.w3.org/1999/02/22-rdf-syntax-ns#">
   <cc:Work>
    <dc:type rdf:resource="http://purl.org/dc/dcmitype/StillImage"/>
    <dc:date>2024-08-01T22:18:10.405643</dc:date>
    <dc:format>image/svg+xml</dc:format>
    <dc:creator>
     <cc:Agent>
      <dc:title>Matplotlib v3.8.4, https://matplotlib.org/</dc:title>
     </cc:Agent>
    </dc:creator>
   </cc:Work>
  </rdf:RDF>
 </metadata>
 <defs>
  <style type="text/css">*{stroke-linejoin: round; stroke-linecap: butt}</style>
 </defs>
 <g id="figure_1">
  <g id="patch_1">
   <path d="M 0 345.6 
L 460.8 345.6 
L 460.8 0 
L 0 0 
z
" style="fill: #ffffff"/>
  </g>
  <g id="axes_1">
   <g id="patch_2">
    <path d="M 29.08774 325.921635 
L 457.79976 325.921635 
L 457.79976 3.00024 
L 29.08774 3.00024 
z
" style="fill: #ffffff"/>
   </g>
   <g id="patch_3">
    <path d="M 48.57465 325.921635 
L 52.511399 325.921635 
L 52.511399 325.921635 
L 48.57465 325.921635 
z
" clip-path="url(#p013a8df961)" style="fill: #ff0000; opacity: 0.5"/>
   </g>
   <g id="patch_4">
    <path d="M 52.511399 325.921635 
L 56.448149 325.921635 
L 56.448149 325.921635 
L 52.511399 325.921635 
z
" clip-path="url(#p013a8df961)" style="fill: #ff0000; opacity: 0.5"/>
   </g>
   <g id="patch_5">
    <path d="M 56.448149 325.921635 
L 60.384898 325.921635 
L 60.384898 325.921635 
L 56.448149 325.921635 
z
" clip-path="url(#p013a8df961)" style="fill: #ff0000; opacity: 0.5"/>
   </g>
   <g id="patch_6">
    <path d="M 60.384898 325.921635 
L 64.321648 325.921635 
L 64.321648 325.921635 
L 60.384898 325.921635 
z
" clip-path="url(#p013a8df961)" style="fill: #ff0000; opacity: 0.5"/>
   </g>
   <g id="patch_7">
    <path d="M 64.321648 325.921635 
L 68.258397 325.921635 
L 68.258397 325.921635 
L 64.321648 325.921635 
z
" clip-path="url(#p013a8df961)" style="fill: #ff0000; opacity: 0.5"/>
   </g>
   <g id="patch_8">
    <path d="M 68.258397 325.921635 
L 72.195147 325.921635 
L 72.195147 325.921635 
L 68.258397 325.921635 
z
" clip-path="url(#p013a8df961)" style="fill: #ff0000; opacity: 0.5"/>
   </g>
   <g id="patch_9">
    <path d="M 72.195147 325.921635 
L 76.131896 325.921635 
L 76.131896 325.921635 
L 72.195147 325.921635 
z
" clip-path="url(#p013a8df961)" style="fill: #ff0000; opacity: 0.5"/>
   </g>
   <g id="patch_10">
    <path d="M 76.131896 325.921635 
L 80.068646 325.921635 
L 80.068646 325.921635 
L 76.131896 325.921635 
z
" clip-path="url(#p013a8df961)" style="fill: #ff0000; opacity: 0.5"/>
   </g>
   <g id="patch_11">
    <path d="M 80.068646 325.921635 
L 84.005395 325.921635 
L 84.005395 325.921635 
L 80.068646 325.921635 
z
" clip-path="url(#p013a8df961)" style="fill: #ff0000; opacity: 0.5"/>
   </g>
   <g id="patch_12">
    <path d="M 84.005395 325.921635 
L 87.942145 325.921635 
L 87.942145 325.921635 
L 84.005395 325.921635 
z
" clip-path="url(#p013a8df961)" style="fill: #ff0000; opacity: 0.5"/>
   </g>
   <g id="patch_13">
    <path d="M 87.942145 325.921635 
L 91.878894 325.921635 
L 91.878894 325.921635 
L 87.942145 325.921635 
z
" clip-path="url(#p013a8df961)" style="fill: #ff0000; opacity: 0.5"/>
   </g>
   <g id="patch_14">
    <path d="M 91.878894 325.921635 
L 95.815644 325.921635 
L 95.815644 325.921635 
L 91.878894 325.921635 
z
" clip-path="url(#p013a8df961)" style="fill: #ff0000; opacity: 0.5"/>
   </g>
   <g id="patch_15">
    <path d="M 95.815644 325.921635 
L 99.752393 325.921635 
L 99.752393 325.921635 
L 95.815644 325.921635 
z
" clip-path="url(#p013a8df961)" style="fill: #ff0000; opacity: 0.5"/>
   </g>
   <g id="patch_16">
    <path d="M 99.752393 325.921635 
L 103.689143 325.921635 
L 103.689143 325.921635 
L 99.752393 325.921635 
z
" clip-path="url(#p013a8df961)" style="fill: #ff0000; opacity: 0.5"/>
   </g>
   <g id="patch_17">
    <path d="M 103.689143 325.921635 
L 107.625892 325.921635 
L 107.625892 325.921635 
L 103.689143 325.921635 
z
" clip-path="url(#p013a8df961)" style="fill: #ff0000; opacity: 0.5"/>
   </g>
   <g id="patch_18">
    <path d="M 107.625892 325.921635 
L 111.562642 325.921635 
L 111.562642 325.921635 
L 107.625892 325.921635 
z
" clip-path="url(#p013a8df961)" style="fill: #ff0000; opacity: 0.5"/>
   </g>
   <g id="patch_19">
    <path d="M 111.562642 325.921635 
L 115.499391 325.921635 
L 115.499391 325.921635 
L 111.562642 325.921635 
z
" clip-path="url(#p013a8df961)" style="fill: #ff0000; opacity: 0.5"/>
   </g>
   <g id="patch_20">
    <path d="M 115.499391 325.921635 
L 119.436141 325.921635 
L 119.436141 325.921635 
L 115.499391 325.921635 
z
" clip-path="url(#p013a8df961)" style="fill: #ff0000; opacity: 0.5"/>
   </g>
   <g id="patch_21">
    <path d="M 119.436141 325.921635 
L 123.37289 325.921635 
L 123.37289 325.921635 
L 119.436141 325.921635 
z
" clip-path="url(#p013a8df961)" style="fill: #ff0000; opacity: 0.5"/>
   </g>
   <g id="patch_22">
    <path d="M 123.37289 325.921635 
L 127.30964 325.921635 
L 127.30964 325.921635 
L 123.37289 325.921635 
z
" clip-path="url(#p013a8df961)" style="fill: #ff0000; opacity: 0.5"/>
   </g>
   <g id="patch_23">
    <path d="M 127.30964 325.921635 
L 131.246389 325.921635 
L 131.246389 325.921635 
L 127.30964 325.921635 
z
" clip-path="url(#p013a8df961)" style="fill: #ff0000; opacity: 0.5"/>
   </g>
   <g id="patch_24">
    <path d="M 131.246389 325.921635 
L 135.183139 325.921635 
L 135.183139 325.921635 
L 131.246389 325.921635 
z
" clip-path="url(#p013a8df961)" style="fill: #ff0000; opacity: 0.5"/>
   </g>
   <g id="patch_25">
    <path d="M 135.183139 325.921635 
L 139.119888 325.921635 
L 139.119888 325.921635 
L 135.183139 325.921635 
z
" clip-path="url(#p013a8df961)" style="fill: #ff0000; opacity: 0.5"/>
   </g>
   <g id="patch_26">
    <path d="M 139.119888 325.921635 
L 143.056638 325.921635 
L 143.056638 325.921635 
L 139.119888 325.921635 
z
" clip-path="url(#p013a8df961)" style="fill: #ff0000; opacity: 0.5"/>
   </g>
   <g id="patch_27">
    <path d="M 143.056638 325.921635 
L 146.993387 325.921635 
L 146.993387 325.921635 
L 143.056638 325.921635 
z
" clip-path="url(#p013a8df961)" style="fill: #ff0000; opacity: 0.5"/>
   </g>
   <g id="patch_28">
    <path d="M 146.993387 325.921635 
L 150.930137 325.921635 
L 150.930137 325.921635 
L 146.993387 325.921635 
z
" clip-path="url(#p013a8df961)" style="fill: #ff0000; opacity: 0.5"/>
   </g>
   <g id="patch_29">
    <path d="M 150.930137 325.921635 
L 154.866886 325.921635 
L 154.866886 325.921635 
L 150.930137 325.921635 
z
" clip-path="url(#p013a8df961)" style="fill: #ff0000; opacity: 0.5"/>
   </g>
   <g id="patch_30">
    <path d="M 154.866886 325.921635 
L 158.803636 325.921635 
L 158.803636 325.921635 
L 154.866886 325.921635 
z
" clip-path="url(#p013a8df961)" style="fill: #ff0000; opacity: 0.5"/>
   </g>
   <g id="patch_31">
    <path d="M 158.803636 325.921635 
L 162.740385 325.921635 
L 162.740385 325.921635 
L 158.803636 325.921635 
z
" clip-path="url(#p013a8df961)" style="fill: #ff0000; opacity: 0.5"/>
   </g>
   <g id="patch_32">
    <path d="M 162.740385 325.921635 
L 166.677135 325.921635 
L 166.677135 325.504908 
L 162.740385 325.504908 
z
" clip-path="url(#p013a8df961)" style="fill: #ff0000; opacity: 0.5"/>
   </g>
   <g id="patch_33">
    <path d="M 166.677135 325.921635 
L 170.613884 325.921635 
L 170.613884 324.254729 
L 166.677135 324.254729 
z
" clip-path="url(#p013a8df961)" style="fill: #ff0000; opacity: 0.5"/>
   </g>
   <g id="patch_34">
    <path d="M 170.613884 325.921635 
L 174.550634 325.921635 
L 174.550634 322.587823 
L 170.613884 322.587823 
z
" clip-path="url(#p013a8df961)" style="fill: #ff0000; opacity: 0.5"/>
   </g>
   <g id="patch_35">
    <path d="M 174.550634 325.921635 
L 178.487383 325.921635 
L 178.487383 313.836565 
L 174.550634 313.836565 
z
" clip-path="url(#p013a8df961)" style="fill: #ff0000; opacity: 0.5"/>
   </g>
   <g id="patch_36">
    <path d="M 178.487383 325.921635 
L 182.424133 325.921635 
L 182.424133 295.083871 
L 178.487383 295.083871 
z
" clip-path="url(#p013a8df961)" style="fill: #ff0000; opacity: 0.5"/>
   </g>
   <g id="patch_37">
    <path d="M 182.424133 325.921635 
L 186.360882 325.921635 
L 186.360882 235.908703 
L 182.424133 235.908703 
z
" clip-path="url(#p013a8df961)" style="fill: #ff0000; opacity: 0.5"/>
   </g>
   <g id="patch_38">
    <path d="M 186.360882 325.921635 
L 190.297632 325.921635 
L 190.297632 200.903673 
L 186.360882 200.903673 
z
" clip-path="url(#p013a8df961)" style="fill: #ff0000; opacity: 0.5"/>
   </g>
   <g id="patch_39">
    <path d="M 190.297632 325.921635 
L 194.234381 325.921635 
L 194.234381 147.979403 
L 190.297632 147.979403 
z
" clip-path="url(#p013a8df961)" style="fill: #ff0000; opacity: 0.5"/>
   </g>
   <g id="patch_40">
    <path d="M 194.234381 325.921635 
L 198.171131 325.921635 
L 198.171131 82.553336 
L 194.234381 82.553336 
z
" clip-path="url(#p013a8df961)" style="fill: #ff0000; opacity: 0.5"/>
   </g>
   <g id="patch_41">
    <path d="M 198.171131 325.921635 
L 202.10788 325.921635 
L 202.10788 55.049385 
L 198.171131 55.049385 
z
" clip-path="url(#p013a8df961)" style="fill: #ff0000; opacity: 0.5"/>
   </g>
   <g id="patch_42">
    <path d="M 202.10788 325.921635 
L 206.04463 325.921635 
L 206.04463 35.463237 
L 202.10788 35.463237 
z
" clip-path="url(#p013a8df961)" style="fill: #ff0000; opacity: 0.5"/>
   </g>
   <g id="patch_43">
    <path d="M 206.04463 325.921635 
L 209.981379 325.921635 
L 209.981379 18.377449 
L 206.04463 18.377449 
z
" clip-path="url(#p013a8df961)" style="fill: #ff0000; opacity: 0.5"/>
   </g>
   <g id="patch_44">
    <path d="M 209.981379 325.921635 
L 213.918129 325.921635 
L 213.918129 30.462519 
L 209.981379 30.462519 
z
" clip-path="url(#p013a8df961)" style="fill: #ff0000; opacity: 0.5"/>
   </g>
   <g id="patch_45">
    <path d="M 213.918129 325.921635 
L 217.854878 325.921635 
L 217.854878 85.470422 
L 213.918129 85.470422 
z
" clip-path="url(#p013a8df961)" style="fill: #ff0000; opacity: 0.5"/>
   </g>
   <g id="patch_46">
    <path d="M 217.854878 325.921635 
L 221.791628 325.921635 
L 221.791628 108.807108 
L 217.854878 108.807108 
z
" clip-path="url(#p013a8df961)" style="fill: #ff0000; opacity: 0.5"/>
   </g>
   <g id="patch_47">
    <path d="M 221.791628 325.921635 
L 225.728377 325.921635 
L 225.728377 127.559802 
L 221.791628 127.559802 
z
" clip-path="url(#p013a8df961)" style="fill: #ff0000; opacity: 0.5"/>
   </g>
   <g id="patch_48">
    <path d="M 225.728377 325.921635 
L 229.665127 325.921635 
L 229.665127 147.979403 
L 225.728377 147.979403 
z
" clip-path="url(#p013a8df961)" style="fill: #ff0000; opacity: 0.5"/>
   </g>
   <g id="patch_49">
    <path d="M 229.665127 325.921635 
L 233.601876 325.921635 
L 233.601876 154.230301 
L 229.665127 154.230301 
z
" clip-path="url(#p013a8df961)" style="fill: #ff0000; opacity: 0.5"/>
   </g>
   <g id="patch_50">
    <path d="M 233.601876 325.921635 
L 237.538626 325.921635 
L 237.538626 186.318244 
L 233.601876 186.318244 
z
" clip-path="url(#p013a8df961)" style="fill: #ff0000; opacity: 0.5"/>
   </g>
   <g id="patch_51">
    <path d="M 237.538626 325.921635 
L 241.475375 325.921635 
L 241.475375 207.154571 
L 237.538626 207.154571 
z
" clip-path="url(#p013a8df961)" style="fill: #ff0000; opacity: 0.5"/>
   </g>
   <g id="patch_52">
    <path d="M 241.475375 325.921635 
L 245.412125 325.921635 
L 245.412125 205.070939 
L 241.475375 205.070939 
z
" clip-path="url(#p013a8df961)" style="fill: #ff0000; opacity: 0.5"/>
   </g>
   <g id="patch_53">
    <path d="M 245.412125 325.921635 
L 249.348874 325.921635 
L 249.348874 216.322555 
L 245.412125 216.322555 
z
" clip-path="url(#p013a8df961)" style="fill: #ff0000; opacity: 0.5"/>
   </g>
   <g id="patch_54">
    <path d="M 249.348874 325.921635 
L 253.285624 325.921635 
L 253.285624 232.158164 
L 249.348874 232.158164 
z
" clip-path="url(#p013a8df961)" style="fill: #ff0000; opacity: 0.5"/>
   </g>
   <g id="patch_55">
    <path d="M 253.285624 325.921635 
L 257.222373 325.921635 
L 257.222373 246.326866 
L 253.285624 246.326866 
z
" clip-path="url(#p013a8df961)" style="fill: #ff0000; opacity: 0.5"/>
   </g>
   <g id="patch_56">
    <path d="M 257.222373 325.921635 
L 261.159123 325.921635 
L 261.159123 259.245389 
L 257.222373 259.245389 
z
" clip-path="url(#p013a8df961)" style="fill: #ff0000; opacity: 0.5"/>
   </g>
   <g id="patch_57">
    <path d="M 261.159123 325.921635 
L 265.095872 325.921635 
L 265.095872 264.662834 
L 261.159123 264.662834 
z
" clip-path="url(#p013a8df961)" style="fill: #ff0000; opacity: 0.5"/>
   </g>
   <g id="patch_58">
    <path d="M 265.095872 325.921635 
L 269.032622 325.921635 
L 269.032622 265.913013 
L 265.095872 265.913013 
z
" clip-path="url(#p013a8df961)" style="fill: #ff0000; opacity: 0.5"/>
   </g>
   <g id="patch_59">
    <path d="M 269.032622 325.921635 
L 272.969371 325.921635 
L 272.969371 272.997365 
L 269.032622 272.997365 
z
" clip-path="url(#p013a8df961)" style="fill: #ff0000; opacity: 0.5"/>
   </g>
   <g id="patch_60">
    <path d="M 272.969371 325.921635 
L 276.906121 325.921635 
L 276.906121 278.41481 
L 272.969371 278.41481 
z
" clip-path="url(#p013a8df961)" style="fill: #ff0000; opacity: 0.5"/>
   </g>
   <g id="patch_61">
    <path d="M 276.906121 325.921635 
L 280.84287 325.921635 
L 280.84287 290.083153 
L 276.906121 290.083153 
z
" clip-path="url(#p013a8df961)" style="fill: #ff0000; opacity: 0.5"/>
   </g>
   <g id="patch_62">
    <path d="M 280.84287 325.921635 
L 284.77962 325.921635 
L 284.77962 293.416965 
L 280.84287 293.416965 
z
" clip-path="url(#p013a8df961)" style="fill: #ff0000; opacity: 0.5"/>
   </g>
   <g id="patch_63">
    <path d="M 284.77962 325.921635 
L 288.716369 325.921635 
L 288.716369 299.667863 
L 284.77962 299.667863 
z
" clip-path="url(#p013a8df961)" style="fill: #ff0000; opacity: 0.5"/>
   </g>
   <g id="patch_64">
    <path d="M 288.716369 325.921635 
L 292.653119 325.921635 
L 292.653119 300.918043 
L 288.716369 300.918043 
z
" clip-path="url(#p013a8df961)" style="fill: #ff0000; opacity: 0.5"/>
   </g>
   <g id="patch_65">
    <path d="M 292.653119 325.921635 
L 296.589868 325.921635 
L 296.589868 296.334051 
L 292.653119 296.334051 
z
" clip-path="url(#p013a8df961)" style="fill: #ff0000; opacity: 0.5"/>
   </g>
   <g id="patch_66">
    <path d="M 296.589868 325.921635 
L 300.526618 325.921635 
L 300.526618 304.668582 
L 296.589868 304.668582 
z
" clip-path="url(#p013a8df961)" style="fill: #ff0000; opacity: 0.5"/>
   </g>
   <g id="patch_67">
    <path d="M 300.526618 325.921635 
L 304.463367 325.921635 
L 304.463367 300.08459 
L 300.526618 300.08459 
z
" clip-path="url(#p013a8df961)" style="fill: #ff0000; opacity: 0.5"/>
   </g>
   <g id="patch_68">
    <path d="M 304.463367 325.921635 
L 308.400117 325.921635 
L 308.400117 312.169659 
L 304.463367 312.169659 
z
" clip-path="url(#p013a8df961)" style="fill: #ff0000; opacity: 0.5"/>
   </g>
   <g id="patch_69">
    <path d="M 308.400117 325.921635 
L 312.336866 325.921635 
L 312.336866 307.168941 
L 308.400117 307.168941 
z
" clip-path="url(#p013a8df961)" style="fill: #ff0000; opacity: 0.5"/>
   </g>
   <g id="patch_70">
    <path d="M 312.336866 325.921635 
L 316.273616 325.921635 
L 316.273616 314.670018 
L 312.336866 314.670018 
z
" clip-path="url(#p013a8df961)" style="fill: #ff0000; opacity: 0.5"/>
   </g>
   <g id="patch_71">
    <path d="M 316.273616 325.921635 
L 320.210365 325.921635 
L 320.210365 310.91948 
L 316.273616 310.91948 
z
" clip-path="url(#p013a8df961)" style="fill: #ff0000; opacity: 0.5"/>
   </g>
   <g id="patch_72">
    <path d="M 320.210365 325.921635 
L 324.147115 325.921635 
L 324.147115 309.6693 
L 320.210365 309.6693 
z
" clip-path="url(#p013a8df961)" style="fill: #ff0000; opacity: 0.5"/>
   </g>
   <g id="patch_73">
    <path d="M 324.147115 325.921635 
L 328.083864 325.921635 
L 328.083864 314.670018 
L 324.147115 314.670018 
z
" clip-path="url(#p013a8df961)" style="fill: #ff0000; opacity: 0.5"/>
   </g>
   <g id="patch_74">
    <path d="M 328.083864 325.921635 
L 332.020614 325.921635 
L 332.020614 318.420557 
L 328.083864 318.420557 
z
" clip-path="url(#p013a8df961)" style="fill: #ff0000; opacity: 0.5"/>
   </g>
   <g id="patch_75">
    <path d="M 332.020614 325.921635 
L 335.957363 325.921635 
L 335.957363 316.753651 
L 332.020614 316.753651 
z
" clip-path="url(#p013a8df961)" style="fill: #ff0000; opacity: 0.5"/>
   </g>
   <g id="patch_76">
    <path d="M 335.957363 325.921635 
L 339.894113 325.921635 
L 339.894113 320.087463 
L 335.957363 320.087463 
z
" clip-path="url(#p013a8df961)" style="fill: #ff0000; opacity: 0.5"/>
   </g>
   <g id="patch_77">
    <path d="M 339.894113 325.921635 
L 343.830862 325.921635 
L 343.830862 320.50419 
L 339.894113 320.50419 
z
" clip-path="url(#p013a8df961)" style="fill: #ff0000; opacity: 0.5"/>
   </g>
   <g id="patch_78">
    <path d="M 343.830862 325.921635 
L 347.767612 325.921635 
L 347.767612 320.50419 
L 343.830862 320.50419 
z
" clip-path="url(#p013a8df961)" style="fill: #ff0000; opacity: 0.5"/>
   </g>
   <g id="patch_79">
    <path d="M 347.767612 325.921635 
L 351.704361 325.921635 
L 351.704361 319.670737 
L 347.767612 319.670737 
z
" clip-path="url(#p013a8df961)" style="fill: #ff0000; opacity: 0.5"/>
   </g>
   <g id="patch_80">
    <path d="M 351.704361 325.921635 
L 355.641111 325.921635 
L 355.641111 320.50419 
L 351.704361 320.50419 
z
" clip-path="url(#p013a8df961)" style="fill: #ff0000; opacity: 0.5"/>
   </g>
   <g id="patch_81">
    <path d="M 355.641111 325.921635 
L 359.57786 325.921635 
L 359.57786 320.087463 
L 355.641111 320.087463 
z
" clip-path="url(#p013a8df961)" style="fill: #ff0000; opacity: 0.5"/>
   </g>
   <g id="patch_82">
    <path d="M 359.57786 325.921635 
L 363.51461 325.921635 
L 363.51461 323.838002 
L 359.57786 323.838002 
z
" clip-path="url(#p013a8df961)" style="fill: #ff0000; opacity: 0.5"/>
   </g>
   <g id="patch_83">
    <path d="M 363.51461 325.921635 
L 367.451359 325.921635 
L 367.451359 323.838002 
L 363.51461 323.838002 
z
" clip-path="url(#p013a8df961)" style="fill: #ff0000; opacity: 0.5"/>
   </g>
   <g id="patch_84">
    <path d="M 367.451359 325.921635 
L 371.388109 325.921635 
L 371.388109 323.421276 
L 367.451359 323.421276 
z
" clip-path="url(#p013a8df961)" style="fill: #ff0000; opacity: 0.5"/>
   </g>
   <g id="patch_85">
    <path d="M 371.388109 325.921635 
L 375.324858 325.921635 
L 375.324858 325.088182 
L 371.388109 325.088182 
z
" clip-path="url(#p013a8df961)" style="fill: #ff0000; opacity: 0.5"/>
   </g>
   <g id="patch_86">
    <path d="M 375.324858 325.921635 
L 379.261608 325.921635 
L 379.261608 323.838002 
L 375.324858 323.838002 
z
" clip-path="url(#p013a8df961)" style="fill: #ff0000; opacity: 0.5"/>
   </g>
   <g id="patch_87">
    <path d="M 379.261608 325.921635 
L 383.198357 325.921635 
L 383.198357 324.671455 
L 379.261608 324.671455 
z
" clip-path="url(#p013a8df961)" style="fill: #ff0000; opacity: 0.5"/>
   </g>
   <g id="patch_88">
    <path d="M 383.198357 325.921635 
L 387.135107 325.921635 
L 387.135107 322.171096 
L 383.198357 322.171096 
z
" clip-path="url(#p013a8df961)" style="fill: #ff0000; opacity: 0.5"/>
   </g>
   <g id="patch_89">
    <path d="M 387.135107 325.921635 
L 391.071856 325.921635 
L 391.071856 324.254729 
L 387.135107 324.254729 
z
" clip-path="url(#p013a8df961)" style="fill: #ff0000; opacity: 0.5"/>
   </g>
   <g id="patch_90">
    <path d="M 391.071856 325.921635 
L 395.008606 325.921635 
L 395.008606 323.838002 
L 391.071856 323.838002 
z
" clip-path="url(#p013a8df961)" style="fill: #ff0000; opacity: 0.5"/>
   </g>
   <g id="patch_91">
    <path d="M 395.008606 325.921635 
L 398.945355 325.921635 
L 398.945355 325.088182 
L 395.008606 325.088182 
z
" clip-path="url(#p013a8df961)" style="fill: #ff0000; opacity: 0.5"/>
   </g>
   <g id="patch_92">
    <path d="M 398.945355 325.921635 
L 402.882105 325.921635 
L 402.882105 325.088182 
L 398.945355 325.088182 
z
" clip-path="url(#p013a8df961)" style="fill: #ff0000; opacity: 0.5"/>
   </g>
   <g id="patch_93">
    <path d="M 402.882105 325.921635 
L 406.818854 325.921635 
L 406.818854 325.088182 
L 402.882105 325.088182 
z
" clip-path="url(#p013a8df961)" style="fill: #ff0000; opacity: 0.5"/>
   </g>
   <g id="patch_94">
    <path d="M 406.818854 325.921635 
L 410.755604 325.921635 
L 410.755604 324.254729 
L 406.818854 324.254729 
z
" clip-path="url(#p013a8df961)" style="fill: #ff0000; opacity: 0.5"/>
   </g>
   <g id="patch_95">
    <path d="M 410.755604 325.921635 
L 414.692353 325.921635 
L 414.692353 325.088182 
L 410.755604 325.088182 
z
" clip-path="url(#p013a8df961)" style="fill: #ff0000; opacity: 0.5"/>
   </g>
   <g id="patch_96">
    <path d="M 414.692353 325.921635 
L 418.629103 325.921635 
L 418.629103 325.921635 
L 414.692353 325.921635 
z
" clip-path="url(#p013a8df961)" style="fill: #ff0000; opacity: 0.5"/>
   </g>
   <g id="patch_97">
    <path d="M 418.629103 325.921635 
L 422.565852 325.921635 
L 422.565852 325.921635 
L 418.629103 325.921635 
z
" clip-path="url(#p013a8df961)" style="fill: #ff0000; opacity: 0.5"/>
   </g>
   <g id="patch_98">
    <path d="M 422.565852 325.921635 
L 426.502602 325.921635 
L 426.502602 325.921635 
L 422.565852 325.921635 
z
" clip-path="url(#p013a8df961)" style="fill: #ff0000; opacity: 0.5"/>
   </g>
   <g id="patch_99">
    <path d="M 426.502602 325.921635 
L 430.439351 325.921635 
L 430.439351 325.504908 
L 426.502602 325.504908 
z
" clip-path="url(#p013a8df961)" style="fill: #ff0000; opacity: 0.5"/>
   </g>
   <g id="patch_100">
    <path d="M 430.439351 325.921635 
L 434.376101 325.921635 
L 434.376101 325.504908 
L 430.439351 325.504908 
z
" clip-path="url(#p013a8df961)" style="fill: #ff0000; opacity: 0.5"/>
   </g>
   <g id="patch_101">
    <path d="M 434.376101 325.921635 
L 438.31285 325.921635 
L 438.31285 325.088182 
L 434.376101 325.088182 
z
" clip-path="url(#p013a8df961)" style="fill: #ff0000; opacity: 0.5"/>
   </g>
   <g id="matplotlib.axis_1">
    <g id="xtick_1">
     <g id="line2d_1">
      <defs>
       <path id="m0e9ef91cc8" d="M 0 0 
L 0 3.5 
" style="stroke: #000000; stroke-width: 0.8"/>
      </defs>
      <g>
       <use xlink:href="#m0e9ef91cc8" x="91.878894" y="325.921635" style="stroke: #000000; stroke-width: 0.8"/>
      </g>
     </g>
     <g id="text_1">
      <!-- −10 -->
      <g transform="translate(81.326551 340.520072) scale(0.1 -0.1)">
       <defs>
        <path id="DejaVuSans-2212" d="M 678 2272 
L 4684 2272 
L 4684 1741 
L 678 1741 
L 678 2272 
z
" transform="scale(0.015625)"/>
        <path id="DejaVuSans-31" d="M 794 531 
L 1825 531 
L 1825 4091 
L 703 3866 
L 703 4441 
L 1819 4666 
L 2450 4666 
L 2450 531 
L 3481 531 
L 3481 0 
L 794 0 
L 794 531 
z
" transform="scale(0.015625)"/>
        <path id="DejaVuSans-30" d="M 2034 4250 
Q 1547 4250 1301 3770 
Q 1056 3291 1056 2328 
Q 1056 1369 1301 889 
Q 1547 409 2034 409 
Q 2525 409 2770 889 
Q 3016 1369 3016 2328 
Q 3016 3291 2770 3770 
Q 2525 4250 2034 4250 
z
M 2034 4750 
Q 2819 4750 3233 4129 
Q 3647 3509 3647 2328 
Q 3647 1150 3233 529 
Q 2819 -91 2034 -91 
Q 1250 -91 836 529 
Q 422 1150 422 2328 
Q 422 3509 836 4129 
Q 1250 4750 2034 4750 
z
" transform="scale(0.015625)"/>
       </defs>
       <use xlink:href="#DejaVuSans-2212"/>
       <use xlink:href="#DejaVuSans-31" x="83.789062"/>
       <use xlink:href="#DejaVuSans-30" x="147.412109"/>
      </g>
     </g>
    </g>
    <g id="xtick_2">
     <g id="line2d_2">
      <g>
       <use xlink:href="#m0e9ef91cc8" x="178.487383" y="325.921635" style="stroke: #000000; stroke-width: 0.8"/>
      </g>
     </g>
     <g id="text_2">
      <!-- 0 -->
      <g transform="translate(175.306133 340.520072) scale(0.1 -0.1)">
       <use xlink:href="#DejaVuSans-30"/>
      </g>
     </g>
    </g>
    <g id="xtick_3">
     <g id="line2d_3">
      <g>
       <use xlink:href="#m0e9ef91cc8" x="265.095872" y="325.921635" style="stroke: #000000; stroke-width: 0.8"/>
      </g>
     </g>
     <g id="text_3">
      <!-- 10 -->
      <g transform="translate(258.733372 340.520072) scale(0.1 -0.1)">
       <use xlink:href="#DejaVuSans-31"/>
       <use xlink:href="#DejaVuSans-30" x="63.623047"/>
      </g>
     </g>
    </g>
    <g id="xtick_4">
     <g id="line2d_4">
      <g>
       <use xlink:href="#m0e9ef91cc8" x="351.704361" y="325.921635" style="stroke: #000000; stroke-width: 0.8"/>
      </g>
     </g>
     <g id="text_4">
      <!-- 20 -->
      <g transform="translate(345.341861 340.520072) scale(0.1 -0.1)">
       <defs>
        <path id="DejaVuSans-32" d="M 1228 531 
L 3431 531 
L 3431 0 
L 469 0 
L 469 531 
Q 828 903 1448 1529 
Q 2069 2156 2228 2338 
Q 2531 2678 2651 2914 
Q 2772 3150 2772 3378 
Q 2772 3750 2511 3984 
Q 2250 4219 1831 4219 
Q 1534 4219 1204 4116 
Q 875 4013 500 3803 
L 500 4441 
Q 881 4594 1212 4672 
Q 1544 4750 1819 4750 
Q 2544 4750 2975 4387 
Q 3406 4025 3406 3419 
Q 3406 3131 3298 2873 
Q 3191 2616 2906 2266 
Q 2828 2175 2409 1742 
Q 1991 1309 1228 531 
z
" transform="scale(0.015625)"/>
       </defs>
       <use xlink:href="#DejaVuSans-32"/>
       <use xlink:href="#DejaVuSans-30" x="63.623047"/>
      </g>
     </g>
    </g>
    <g id="xtick_5">
     <g id="line2d_5">
      <g>
       <use xlink:href="#m0e9ef91cc8" x="438.31285" y="325.921635" style="stroke: #000000; stroke-width: 0.8"/>
      </g>
     </g>
     <g id="text_5">
      <!-- 30 -->
      <g transform="translate(431.95035 340.520072) scale(0.1 -0.1)">
       <defs>
        <path id="DejaVuSans-33" d="M 2597 2516 
Q 3050 2419 3304 2112 
Q 3559 1806 3559 1356 
Q 3559 666 3084 287 
Q 2609 -91 1734 -91 
Q 1441 -91 1130 -33 
Q 819 25 488 141 
L 488 750 
Q 750 597 1062 519 
Q 1375 441 1716 441 
Q 2309 441 2620 675 
Q 2931 909 2931 1356 
Q 2931 1769 2642 2001 
Q 2353 2234 1838 2234 
L 1294 2234 
L 1294 2753 
L 1863 2753 
Q 2328 2753 2575 2939 
Q 2822 3125 2822 3475 
Q 2822 3834 2567 4026 
Q 2313 4219 1838 4219 
Q 1578 4219 1281 4162 
Q 984 4106 628 3988 
L 628 4550 
Q 988 4650 1302 4700 
Q 1616 4750 1894 4750 
Q 2613 4750 3031 4423 
Q 3450 4097 3450 3541 
Q 3450 3153 3228 2886 
Q 3006 2619 2597 2516 
z
" transform="scale(0.015625)"/>
       </defs>
       <use xlink:href="#DejaVuSans-33"/>
       <use xlink:href="#DejaVuSans-30" x="63.623047"/>
      </g>
     </g>
    </g>
   </g>
   <g id="matplotlib.axis_2">
    <g id="ytick_1">
     <g id="line2d_6">
      <defs>
       <path id="m6dfbb64a72" d="M 0 0 
L -3.5 0 
" style="stroke: #000000; stroke-width: 0.8"/>
      </defs>
      <g>
       <use xlink:href="#m6dfbb64a72" x="29.08774" y="325.921635" style="stroke: #000000; stroke-width: 0.8"/>
      </g>
     </g>
     <g id="text_6">
      <!-- 0 -->
      <g transform="translate(15.72524 329.720854) scale(0.1 -0.1)">
       <use xlink:href="#DejaVuSans-30"/>
      </g>
     </g>
    </g>
    <g id="ytick_2">
     <g id="line2d_7">
      <g>
       <use xlink:href="#m6dfbb64a72" x="29.08774" y="284.248981" style="stroke: #000000; stroke-width: 0.8"/>
      </g>
     </g>
     <g id="text_7">
      <!-- 100 -->
      <g transform="translate(3.00024 288.0482) scale(0.1 -0.1)">
       <use xlink:href="#DejaVuSans-31"/>
       <use xlink:href="#DejaVuSans-30" x="63.623047"/>
       <use xlink:href="#DejaVuSans-30" x="127.246094"/>
      </g>
     </g>
    </g>
    <g id="ytick_3">
     <g id="line2d_8">
      <g>
       <use xlink:href="#m6dfbb64a72" x="29.08774" y="242.576327" style="stroke: #000000; stroke-width: 0.8"/>
      </g>
     </g>
     <g id="text_8">
      <!-- 200 -->
      <g transform="translate(3.00024 246.375546) scale(0.1 -0.1)">
       <use xlink:href="#DejaVuSans-32"/>
       <use xlink:href="#DejaVuSans-30" x="63.623047"/>
       <use xlink:href="#DejaVuSans-30" x="127.246094"/>
      </g>
     </g>
    </g>
    <g id="ytick_4">
     <g id="line2d_9">
      <g>
       <use xlink:href="#m6dfbb64a72" x="29.08774" y="200.903673" style="stroke: #000000; stroke-width: 0.8"/>
      </g>
     </g>
     <g id="text_9">
      <!-- 300 -->
      <g transform="translate(3.00024 204.702892) scale(0.1 -0.1)">
       <use xlink:href="#DejaVuSans-33"/>
       <use xlink:href="#DejaVuSans-30" x="63.623047"/>
       <use xlink:href="#DejaVuSans-30" x="127.246094"/>
      </g>
     </g>
    </g>
    <g id="ytick_5">
     <g id="line2d_10">
      <g>
       <use xlink:href="#m6dfbb64a72" x="29.08774" y="159.231019" style="stroke: #000000; stroke-width: 0.8"/>
      </g>
     </g>
     <g id="text_10">
      <!-- 400 -->
      <g transform="translate(3.00024 163.030238) scale(0.1 -0.1)">
       <defs>
        <path id="DejaVuSans-34" d="M 2419 4116 
L 825 1625 
L 2419 1625 
L 2419 4116 
z
M 2253 4666 
L 3047 4666 
L 3047 1625 
L 3713 1625 
L 3713 1100 
L 3047 1100 
L 3047 0 
L 2419 0 
L 2419 1100 
L 313 1100 
L 313 1709 
L 2253 4666 
z
" transform="scale(0.015625)"/>
       </defs>
       <use xlink:href="#DejaVuSans-34"/>
       <use xlink:href="#DejaVuSans-30" x="63.623047"/>
       <use xlink:href="#DejaVuSans-30" x="127.246094"/>
      </g>
     </g>
    </g>
    <g id="ytick_6">
     <g id="line2d_11">
      <g>
       <use xlink:href="#m6dfbb64a72" x="29.08774" y="117.558366" style="stroke: #000000; stroke-width: 0.8"/>
      </g>
     </g>
     <g id="text_11">
      <!-- 500 -->
      <g transform="translate(3.00024 121.357584) scale(0.1 -0.1)">
       <defs>
        <path id="DejaVuSans-35" d="M 691 4666 
L 3169 4666 
L 3169 4134 
L 1269 4134 
L 1269 2991 
Q 1406 3038 1543 3061 
Q 1681 3084 1819 3084 
Q 2600 3084 3056 2656 
Q 3513 2228 3513 1497 
Q 3513 744 3044 326 
Q 2575 -91 1722 -91 
Q 1428 -91 1123 -41 
Q 819 9 494 109 
L 494 744 
Q 775 591 1075 516 
Q 1375 441 1709 441 
Q 2250 441 2565 725 
Q 2881 1009 2881 1497 
Q 2881 1984 2565 2268 
Q 2250 2553 1709 2553 
Q 1456 2553 1204 2497 
Q 953 2441 691 2322 
L 691 4666 
z
" transform="scale(0.015625)"/>
       </defs>
       <use xlink:href="#DejaVuSans-35"/>
       <use xlink:href="#DejaVuSans-30" x="63.623047"/>
       <use xlink:href="#DejaVuSans-30" x="127.246094"/>
      </g>
     </g>
    </g>
    <g id="ytick_7">
     <g id="line2d_12">
      <g>
       <use xlink:href="#m6dfbb64a72" x="29.08774" y="75.885712" style="stroke: #000000; stroke-width: 0.8"/>
      </g>
     </g>
     <g id="text_12">
      <!-- 600 -->
      <g transform="translate(3.00024 79.68493) scale(0.1 -0.1)">
       <defs>
        <path id="DejaVuSans-36" d="M 2113 2584 
Q 1688 2584 1439 2293 
Q 1191 2003 1191 1497 
Q 1191 994 1439 701 
Q 1688 409 2113 409 
Q 2538 409 2786 701 
Q 3034 994 3034 1497 
Q 3034 2003 2786 2293 
Q 2538 2584 2113 2584 
z
M 3366 4563 
L 3366 3988 
Q 3128 4100 2886 4159 
Q 2644 4219 2406 4219 
Q 1781 4219 1451 3797 
Q 1122 3375 1075 2522 
Q 1259 2794 1537 2939 
Q 1816 3084 2150 3084 
Q 2853 3084 3261 2657 
Q 3669 2231 3669 1497 
Q 3669 778 3244 343 
Q 2819 -91 2113 -91 
Q 1303 -91 875 529 
Q 447 1150 447 2328 
Q 447 3434 972 4092 
Q 1497 4750 2381 4750 
Q 2619 4750 2861 4703 
Q 3103 4656 3366 4563 
z
" transform="scale(0.015625)"/>
       </defs>
       <use xlink:href="#DejaVuSans-36"/>
       <use xlink:href="#DejaVuSans-30" x="63.623047"/>
       <use xlink:href="#DejaVuSans-30" x="127.246094"/>
      </g>
     </g>
    </g>
    <g id="ytick_8">
     <g id="line2d_13">
      <g>
       <use xlink:href="#m6dfbb64a72" x="29.08774" y="34.213058" style="stroke: #000000; stroke-width: 0.8"/>
      </g>
     </g>
     <g id="text_13">
      <!-- 700 -->
      <g transform="translate(3.00024 38.012277) scale(0.1 -0.1)">
       <defs>
        <path id="DejaVuSans-37" d="M 525 4666 
L 3525 4666 
L 3525 4397 
L 1831 0 
L 1172 0 
L 2766 4134 
L 525 4134 
L 525 4666 
z
" transform="scale(0.015625)"/>
       </defs>
       <use xlink:href="#DejaVuSans-37"/>
       <use xlink:href="#DejaVuSans-30" x="63.623047"/>
       <use xlink:href="#DejaVuSans-30" x="127.246094"/>
      </g>
     </g>
    </g>
   </g>
   <g id="patch_102">
    <path d="M 29.08774 325.921635 
L 29.08774 3.00024 
" style="fill: none; stroke: #000000; stroke-width: 0.8; stroke-linejoin: miter; stroke-linecap: square"/>
   </g>
   <g id="patch_103">
    <path d="M 457.79976 325.921635 
L 457.79976 3.00024 
" style="fill: none; stroke: #000000; stroke-width: 0.8; stroke-linejoin: miter; stroke-linecap: square"/>
   </g>
   <g id="patch_104">
    <path d="M 29.08774 325.921635 
L 457.79976 325.921635 
" style="fill: none; stroke: #000000; stroke-width: 0.8; stroke-linejoin: miter; stroke-linecap: square"/>
   </g>
   <g id="patch_105">
    <path d="M 29.08774 3.00024 
L 457.79976 3.00024 
" style="fill: none; stroke: #000000; stroke-width: 0.8; stroke-linejoin: miter; stroke-linecap: square"/>
   </g>
  </g>
 </g>
 <defs>
  <clipPath id="p013a8df961">
   <rect x="29.08774" y="3.00024" width="428.71202" height="322.921395"/>
  </clipPath>
 </defs>
</svg>
